<svg width="124" height="32" viewBox="0 0 124 32" fill="none" xmlns="http://www.w3.org/2000/svg">
<path d="M37.8889 26.3766V18.131C37.8889 15.7323 39.3581 13.7234 41.7268 13.7234C44.0356 13.7234 45.4148 15.2226 45.4148 17.8612V26.3766H48.6231V17.4114C48.6231 13.2137 46.0745 10.9649 42.5064 10.9649C40.6174 10.9649 38.8784 11.7445 37.8889 13.1837V5.38794H34.6807V26.3766H37.8889Z" fill="black"/>
<path d="M57.6171 26.7963C59.7459 26.7963 61.6948 25.8069 63.1041 24.2177V26.3766H66.3123V11.3847H63.1041V13.5435C61.6948 11.9544 59.7459 10.9649 57.6171 10.9649C53.2694 10.9649 50.1211 14.6829 50.1211 18.8806C50.1211 23.0783 53.2694 26.7963 57.6171 26.7963ZM58.2167 13.9633C60.9153 13.9633 63.0141 16.1821 63.0141 18.8806C63.0141 21.5492 60.9453 23.8279 58.2167 23.8279C55.4882 23.8279 53.3893 21.5492 53.3893 18.8806C53.3893 16.1821 55.4882 13.9633 58.2167 13.9633Z" fill="black"/>
<path d="M68.7298 26.3766H71.938V18.131C71.938 15.2526 73.7371 13.6335 75.656 13.7834C77.3051 13.9633 78.5345 15.4025 78.5345 17.9511V26.3766H81.7427V18.131C81.7427 15.9722 82.9421 13.5435 85.4307 13.7834C87.0798 13.9333 88.3092 15.4025 88.3092 17.9511V26.3766H91.5174V17.4114C91.5174 13.2137 88.9988 10.9949 86.0004 10.9649C83.4818 10.9349 82.1925 12.0743 80.9332 13.8134C79.9437 11.8944 78.0847 10.9949 76.2257 10.9649C74.5466 10.9649 72.9875 11.6545 71.938 13.1837V11.3847H68.7298V26.3766Z" fill="black"/>
<path d="M93.7627 5.38794V26.3766H96.971V5.38794H93.7627Z" fill="black"/>
<path d="M106.635 10.9649C102.287 10.9649 98.7791 14.473 98.7791 18.8506C98.7791 23.2283 102.347 26.7963 106.725 26.7963C109.273 26.7963 111.672 25.8368 113.291 23.798L111.042 22.0289C109.963 23.4082 108.584 23.9179 106.845 23.9179C104.566 23.9179 102.647 22.2988 102.137 20.11H114.431C114.97 15.2826 111.702 10.9649 106.635 10.9649ZM102.047 17.6513C102.557 15.4625 104.386 13.8434 106.665 13.8434C108.944 13.8434 110.803 15.4325 111.282 17.6513H102.047Z" fill="black"/>
<path d="M115.975 21.2194C115.975 25.4471 118.134 26.7663 120.683 26.7663C121.612 26.7663 122.602 26.5864 123.561 26.3166L123.621 23.4381C123.111 23.738 122.422 23.9179 121.732 23.9179C120.443 23.9179 119.184 23.2582 119.184 21.4592V14.1432H123.591V11.5346H119.184V5.38794H115.975V21.2194Z" fill="black"/>
<path d="M24.8974 10.9985V21.0015C24.8972 21.3304 24.8106 21.6535 24.646 21.9383C24.4815 22.2231 24.245 22.4597 23.9601 22.6241L21.0768 24.2901L21.0897 17.9108H18.1807V25.1501C18.1806 25.3968 18.1156 25.6392 17.9922 25.8529C17.8689 26.0665 17.6914 26.244 17.4777 26.3673L14.3636 28.1681V3.83191L17.4777 5.63849C17.6914 5.76186 17.8689 5.9393 17.9922 6.15297C18.1156 6.36664 18.1806 6.60903 18.1807 6.85577V14.0962H21.0768V7.70985L23.9613 9.37585C24.2459 9.54046 24.4822 9.77704 24.6465 10.0619C24.8109 10.3467 24.8974 10.6697 24.8974 10.9985Z" fill="white"/>
<path d="M26.8445 6.62733L21.0768 3.29534L19.7002 2.501L16.2382 0.502278C15.6682 0.173229 15.0217 0 14.3636 0C13.7055 0 13.059 0.173229 12.4891 0.502278L1.87454 6.62733C1.30448 6.95645 0.831126 7.42986 0.502069 7.99995C0.173012 8.57004 -0.000147735 9.21671 9.45735e-08 9.87495V22.125C-0.000147735 22.7833 0.173012 23.43 0.502069 24.0001C0.831126 24.5701 1.30448 25.0436 1.87454 25.3727L12.4891 31.4977C13.059 31.8268 13.7055 32 14.3636 32C15.0217 32 15.6682 31.8268 16.2382 31.4977L18.1842 30.3742L19.7072 29.4967L21.0838 28.7023L26.8516 25.3727C27.4216 25.0436 27.895 24.5701 28.224 24.0001C28.5531 23.43 28.7262 22.7833 28.7261 22.125V9.87495C28.7255 9.21602 28.5513 8.56888 28.221 7.99873C27.8906 7.42858 27.4159 6.95555 26.8445 6.62733ZM24.8973 21.0015C24.8972 21.3304 24.8105 21.6535 24.646 21.9383C24.4815 22.2232 24.2449 22.4597 23.9601 22.6241L21.0768 24.2901L20.0517 24.8759C20.016 24.8965 19.9755 24.9074 19.9343 24.9073C19.8931 24.9073 19.8526 24.8964 19.817 24.8757C19.7813 24.855 19.7517 24.8253 19.7312 24.7896C19.7107 24.7538 19.7 24.7133 19.7002 24.6721V18.697H18.1771V25.1407C18.1771 25.3874 18.1121 25.6298 17.9887 25.8435C17.8653 26.0572 17.6879 26.2346 17.4742 26.358L14.3636 28.1681L13.4264 27.6303C13.2911 27.5521 13.1788 27.4397 13.1007 27.3044C13.0225 27.1691 12.9813 27.0157 12.9812 26.8594V5.13941C12.9812 4.9865 13.0207 4.83619 13.0958 4.703C13.171 4.56981 13.2791 4.45823 13.41 4.37905L13.4264 4.36851L14.3578 3.83193L17.4777 5.63851C17.6914 5.76188 17.8688 5.93931 17.9922 6.15299C18.1156 6.36666 18.1806 6.60904 18.1807 6.85579V14.0962H19.7037V8.50421L19.931 8.37299H19.938L21.0803 7.71455L23.9648 9.38055C24.2496 9.54501 24.4862 9.78153 24.6507 10.0664C24.8152 10.3512 24.9019 10.6743 24.902 11.0032L24.8973 21.0015Z" fill="#2F54EB"/>
<path d="M21.0897 17.9109L21.0768 24.2902L20.0517 24.876C20.016 24.8966 19.9755 24.9074 19.9343 24.9074C19.8931 24.9073 19.8526 24.8964 19.817 24.8757C19.7813 24.8551 19.7517 24.8254 19.7312 24.7896C19.7107 24.7539 19.7 24.7133 19.7002 24.6721V18.697L21.0768 17.9027L21.0897 17.9109Z" fill="#2544C2"/>
<path d="M14.3637 3.83191V28.1681L13.4264 27.6303C13.2912 27.5521 13.1788 27.4397 13.1007 27.3044C13.0226 27.1691 12.9814 27.0156 12.9812 26.8594V5.13939C12.9813 4.98648 13.0208 4.83617 13.0959 4.70298C13.171 4.56979 13.2792 4.45821 13.41 4.37904L13.4264 4.36849L14.3637 3.83191Z" fill="#2544C2"/>
<path d="M21.0768 17.9109L19.7002 18.7052H18.1807V17.9109H21.0768Z" fill="#2544C2"/>
<path d="M21.0768 7.70984V14.0903H19.7002V8.77481C19.7002 8.69391 19.7211 8.61437 19.7609 8.54395C19.8007 8.47353 19.8581 8.41463 19.9275 8.37296H19.9345L21.0768 7.70984Z" fill="#2544C2"/>
</svg>
